<svg width="25" height="23" viewBox="0 0 25 23" fill="none" xmlns="http://www.w3.org/2000/svg">
<path fill-rule="evenodd" clip-rule="evenodd" d="M9.7225 23H15.2775C19.1788 23 21.13 23 22.5312 22.0608C23.1359 21.6558 23.6566 21.133 24.0637 20.5224C25 19.1168 25 17.158 25 13.2429C25 9.32654 25 7.36899 24.0637 5.96343C23.6566 5.3528 23.1359 4.83005 22.5312 4.42499C21.6312 3.82061 20.5038 3.60466 18.7775 3.528C17.9538 3.528 17.245 2.90189 17.0837 2.0905C16.9605 1.49617 16.6403 0.963548 16.1773 0.582662C15.7143 0.201776 15.1368 -0.00401836 14.5425 5.94559e-05H10.4575C9.2225 5.94559e-05 8.15875 0.875335 7.91625 2.0905C7.755 2.90189 7.04625 3.528 6.2225 3.528C4.4975 3.60466 3.37 3.82188 2.46875 4.42499C1.86452 4.83013 1.34422 5.35288 0.9375 5.96343C0 7.36899 0 9.32654 0 13.2429C0 17.158 5.96046e-08 19.1156 0.93625 20.5224C1.34125 21.1306 1.86125 21.6532 2.46875 22.0608C3.87 23 5.82125 23 9.7225 23ZM12.5 8.01554C9.62375 8.01554 7.29125 10.3551 7.29125 13.2416C7.29125 16.1294 9.62375 18.469 12.5 18.469C15.3763 18.469 17.7087 16.1294 17.7087 13.2429C17.7087 10.3551 15.3763 8.01554 12.5 8.01554ZM12.5 10.106C10.775 10.106 9.375 11.5103 9.375 13.2429C9.375 14.9743 10.775 16.3786 12.5 16.3786C14.225 16.3786 15.625 14.9743 15.625 13.2429C15.625 11.5103 14.225 10.106 12.5 10.106ZM18.4025 9.06076C18.4025 8.4832 18.8687 8.01554 19.445 8.01554H20.8325C21.4075 8.01554 21.875 8.4832 21.875 9.06076C21.8724 9.34046 21.7612 9.60765 21.566 9.80363C21.3707 9.99962 21.1074 10.1084 20.8337 10.106H19.445C19.3094 10.1073 19.1749 10.0814 19.0491 10.0296C18.9233 9.97776 18.8088 9.90115 18.712 9.80409C18.6152 9.70703 18.538 9.59143 18.4849 9.46389C18.4318 9.33635 18.4038 9.19936 18.4025 9.06076Z" fill="#D70000"/>
</svg>
