<svg width="177" height="188" viewBox="0 0 177 188" fill="none" xmlns="http://www.w3.org/2000/svg">
<path d="M125.847 25.8177L132.424 7.7413L143.281 11.6915L136.705 29.7679L125.847 25.8177Z" fill="#1576F7"/>
<path d="M147.705 6.82046L132.193 1.17438C129.021 0.0198267 125.514 1.6552 124.359 4.82694C123.205 7.99867 124.84 11.5056 128.012 12.6602L143.525 18.3063C146.696 19.4608 150.203 17.8255 151.358 14.6537C152.512 11.482 150.877 7.97501 147.705 6.82046Z" fill="#73903F"/>
<path d="M151.359 14.6543C150.204 17.8268 146.697 19.4589 143.525 18.3043L133.324 14.5921C136.497 15.7466 140.004 14.1145 141.159 10.9421C141.735 9.35765 141.616 7.68443 140.955 6.26708C140.294 4.84974 139.089 3.68281 137.505 3.10626L147.705 6.81851C149.293 7.39652 150.494 8.56199 151.155 9.97933C151.816 11.3967 151.935 13.0699 151.359 14.6543Z" fill="#73903F"/>
<path d="M115.841 120.314C142.906 120.314 164.846 98.3741 164.846 71.3096C164.846 44.245 142.906 22.3049 115.841 22.3049C88.7767 22.3049 66.8365 44.245 66.8365 71.3096C66.8365 98.3741 88.7767 120.314 115.841 120.314Z" fill="#C5D8A4"/>
<path d="M164.848 71.3082C164.848 98.3742 142.907 120.315 115.841 120.315C113.364 120.315 110.931 120.133 108.552 119.776C132.157 116.253 150.266 95.897 150.266 71.3082C150.266 46.723 132.157 26.367 108.552 22.8444C110.931 22.4873 113.364 22.3053 115.841 22.3053C142.907 22.3053 164.848 44.2461 164.848 71.3082Z" fill="#73903F"/>
<path d="M115.841 107.891C136.045 107.891 152.423 91.5132 152.423 71.3097C152.423 51.1062 136.045 34.7281 115.841 34.7281C95.6377 34.7281 79.2595 51.1062 79.2595 71.3097C79.2595 91.5132 95.6377 107.891 115.841 107.891Z" fill="#D9E7EB"/>
<path d="M152.422 71.3081C152.422 91.511 136.044 107.893 115.841 107.893C113.346 107.893 110.909 107.641 108.552 107.164C125.262 103.787 137.844 89.0155 137.844 71.3078C137.844 53.6001 125.262 38.8322 108.552 35.4552C110.909 34.978 113.346 34.7265 115.841 34.7265C136.044 34.7272 152.422 51.1053 152.422 71.3081Z" fill="#C5D3DD"/>
<path d="M112.846 69.1267V45.4042C112.846 43.8507 114.105 42.592 115.658 42.592C117.211 42.592 118.47 43.8511 118.47 45.4042V69.1267H112.846Z" fill="#73903F"/>
<path d="M112.174 71.7362L97.8634 57.4256C96.7649 56.3271 96.7649 54.5468 97.8634 53.448C98.9615 52.3502 100.742 52.3502 101.84 53.448L115.658 67.2654L112.174 71.7362Z" fill="#73903F"/>
<path d="M115.658 76.9177C118.792 76.9177 121.333 74.3768 121.333 71.2425C121.333 68.1081 118.792 65.5673 115.658 65.5673C112.524 65.5673 109.983 68.1081 109.983 71.2425C109.983 74.3768 112.524 76.9177 115.658 76.9177Z" fill="#73903F"/>
<path d="M177 98.9471C176.844 148.054 136.335 187.841 87.2326 187.153C39.2259 186.48 0.460391 147.58 0.00395719 99.5175C-0.4583 50.8338 39.639 10.2549 88.3253 10.1617C88.5797 10.1614 88.8341 10.1617 89.0882 10.1636C92.0277 10.1829 92.8696 14.2027 90.1797 15.3874C68.4111 24.9769 53.2145 46.7401 53.2145 72.0529C53.2145 106.237 80.9251 133.948 115.106 133.948C140.421 133.948 162.185 118.751 171.775 96.982C172.961 94.2904 176.98 95.1355 176.999 98.0769C177 98.3666 177 98.6567 177 98.9471Z" fill="#FFBCBC"/>
<path d="M176.999 98.0775V98.9474C176.846 148.053 136.334 187.84 87.2326 187.154C84.019 187.109 80.8469 186.892 77.7236 186.513C113.818 182.126 143.433 155.822 152.6 121.295C160.883 114.988 167.524 106.63 171.776 96.9826C172.961 94.2903 176.98 95.134 176.999 98.0775Z" fill="#E9A9A9"/>
</svg>
